<?xml version="1.0" encoding="UTF-8"?>
<svg version="1.1" xmlns="http://www.w3.org/2000/svg" width="211" height="239">
<path d="M0 0 C69.63 0 139.26 0 211 0 C211 78.87 211 157.74 211 239 C141.37 239 71.74 239 0 239 C0 160.13 0 81.26 0 0 Z " fill="#E44D25" transform="translate(0,0)"/>
<path d="M0 0 C43.23 0 86.46 0 131 0 C130 22 130 22 129 26 C95.67 26 62.34 26 28 26 C28.66 29.3 29.32 32.6 30 36 C30.495 44.415 30.495 44.415 31 53 C62.68 53 94.36 53 127 53 C126.21625 62.28125 125.4325 71.5625 124.625 81.125 C124.38217285 84.00492676 124.1393457 86.88485352 123.88916016 89.85205078 C122.64518789 104.57303216 121.3625471 119.28950215 120 134 C118.59278049 134.47145443 117.18534899 134.94227612 115.77783203 135.4128418 C114.9940921 135.67510056 114.21035217 135.93735931 113.40286255 136.20756531 C105.99099525 138.65190853 98.49568355 140.8295241 91 143 C90.00871094 143.28907227 89.01742187 143.57814453 87.99609375 143.87597656 C84.96124206 144.75096733 81.91980945 145.59788574 78.875 146.4375 C77.94026855 146.70860596 77.00553711 146.97971191 76.04248047 147.2590332 C64.58889394 150.34253398 55.11909915 147.45801572 43.9375 144.25 C42.65088436 143.88669218 41.36409902 143.5239848 40.07714844 143.16186523 C36.38207531 142.11708542 32.69064383 141.06030403 29 140 C27.52394287 139.57968506 27.52394287 139.57968506 26.01806641 139.15087891 C23.59376132 138.46019497 21.1712322 137.76387058 18.75 137.0625 C18.060271 136.86366211 17.37054199 136.66482422 16.65991211 136.45996094 C12.12025281 135.12025281 12.12025281 135.12025281 11 134 C10.69853428 131.74572525 10.45947906 129.4830607 10.24609375 127.21875 C10.18092056 126.53123657 10.11574738 125.84372314 10.04859924 125.13537598 C9.91114019 123.67281253 9.77595007 122.21003437 9.64282227 120.74707031 C9.44083092 118.53645401 9.22977847 116.32684428 9.01757812 114.1171875 C8.88486305 112.69275981 8.75268568 111.26828189 8.62109375 109.84375 C8.5017749 108.55662109 8.38245605 107.26949219 8.25952148 105.94335938 C7.97613345 101.63735421 8 97.3153203 8 93 C16.58 93 25.16 93 34 93 C35.18312112 100.09872674 36.28209832 106.80649277 36 114 C37.7325 114.37125 37.7325 114.37125 39.5 114.75 C44.80240618 115.92362175 50.0636487 117.25167401 55.32617188 118.59082031 C57.21530472 119.06909346 59.10756975 119.53494533 61 120 C61.78375 120.25265625 62.5675 120.5053125 63.375 120.765625 C67.68809863 121.15072309 71.60849874 119.81783577 75.75 118.6875 C77.47365545 118.23192541 79.19761261 117.77749076 80.921875 117.32421875 C81.76041016 117.10169434 82.59894531 116.87916992 83.46289062 116.64990234 C87.28885767 115.66984805 91.1394092 114.83229336 95 114 C95 110.37 95 106.74 95 103 C95.66 95.41 96.32 87.82 97 80 C66.97 80 36.94 80 6 80 C4.125 56.6875 4.125 56.6875 3.54736328 49.4597168 C3.38895376 47.49783498 3.22995694 45.53600047 3.0703125 43.57421875 C2.98411652 42.513134 2.89792053 41.45204926 2.80911255 40.35881042 C2.20358673 33.05833377 1.49987111 25.77401998 0.60305786 18.50309753 C-0.12352705 12.21887171 0 6.47691219 0 0 Z " fill="#EBE9E8" transform="translate(40,44)"/>
<path d="M0 0 C1.18682625 0.00539291 1.18682625 0.00539291 2.39762878 0.01089478 C3.22682831 0.01074875 4.05602783 0.01060272 4.91035461 0.01045227 C7.664521 0.01115166 10.41862063 0.01894523 13.17277527 0.02676392 C15.07706668 0.028628 16.98135857 0.03005195 18.88565063 0.03105164 C23.90804865 0.03487754 28.93041794 0.04470843 33.95280457 0.05575562 C39.07365022 0.06596819 44.1945005 0.07054892 49.31535339 0.07559204 C59.37070459 0.08633064 69.42603442 0.10340792 79.48136902 0.12442017 C79.7256994 9.4161815 78.95685953 18.56738726 78.12028503 27.80752563 C77.97371921 29.46600311 77.82757204 31.12451762 77.68180847 32.7830658 C77.28742923 37.25615032 76.8870389 41.72867772 76.4853642 46.20111227 C76.06493034 50.89231853 75.64959088 55.58397613 75.23355103 60.27557373 C74.53489934 68.1454105 73.8324643 76.01490233 73.12760925 83.88418579 C72.31303782 92.9787572 71.50382643 102.07379304 70.69760567 111.16910827 C69.92070782 119.93284138 69.14066902 128.69629189 68.35897636 137.45959854 C68.02675 141.18427735 67.69550858 144.90904182 67.36503792 148.6338768 C66.97610099 153.01557263 66.5843776 157.39701076 66.19049835 161.778265 C66.04644509 163.38542094 65.90332446 164.99266078 65.76120567 166.59998894 C65.56705039 168.79398853 65.36950036 170.98765689 65.17108154 173.18127441 C65.06138818 174.40864256 64.95169481 175.6360107 64.83867741 176.90057182 C64.52894317 179.69517798 64.08801248 182.3812005 63.48136902 185.12442017 C54.65066255 187.60475407 45.81918328 190.08231143 36.98669624 192.5562973 C32.88573815 193.70507332 28.78505588 194.85481507 24.6849823 196.00674438 C20.73045269 197.11774468 16.77522715 198.2262336 12.81949997 199.33296204 C11.30812737 199.75629229 9.79701062 200.18053703 8.28615189 200.60569763 C6.17496747 201.19962571 4.06290846 201.79033752 1.9506073 202.38027954 C0.74703583 202.7178125 -0.45653564 203.05534546 -1.69657898 203.40310669 C-4.51863098 204.12442017 -4.51863098 204.12442017 -6.51863098 204.12442017 C-6.51863098 194.88442017 -6.51863098 185.64442017 -6.51863098 176.12442017 C-2.72363098 175.11379517 1.07136902 174.10317017 4.98136902 173.06192017 C17.12085018 169.81124204 29.19089945 166.35025127 41.23674011 162.7694397 C43.30927456 162.17387346 45.38825486 161.64179949 47.48136902 161.12442017 C47.6095829 159.66862801 47.6095829 159.66862801 47.74038696 158.1834259 C48.54567346 149.04529448 49.35477041 139.90750743 50.16761684 130.77004528 C50.58540398 126.07217574 51.0018391 121.37419446 51.41520691 116.67593384 C51.81404155 112.14342001 52.21639818 107.6112315 52.62121773 103.07924843 C52.7751823 101.34857657 52.92786896 99.61779054 53.0792675 97.88689232 C53.29123677 95.46599938 53.50771113 93.04554909 53.7252655 90.62515259 C53.7871254 89.90658081 53.84898529 89.18800903 53.91271973 88.44766235 C54.18225261 85.49435199 54.53908672 82.95126705 55.48136902 80.12442017 C23.80136902 80.12442017 -7.87863098 80.12442017 -40.51863098 80.12442017 C-43.51863098 59.12442017 -43.51863098 59.12442017 -43.51863098 53.12442017 C-10.18863098 53.12442017 23.14136902 53.12442017 57.48136902 53.12442017 C57.81136902 46.52442017 58.14136902 39.92442017 58.48136902 33.12442017 C58.81136902 31.14442017 59.14136902 29.16442017 59.48136902 27.12442017 C37.70136902 27.12442017 15.92136902 27.12442017 -6.51863098 27.12442017 C-6.51863098 0.01250517 -6.51863098 0.01250517 0 0 Z " fill="#F06529" transform="translate(111.51863098144531,16.875579833984375)"/>
<path d="M0 0 C19.8 0 39.6 0 60 0 C60 12.375 60 12.375 59.44921875 18.58276367 C59.39069733 19.25736633 59.3321759 19.93196899 59.2718811 20.62701416 C59.08159672 22.80775656 58.88463895 24.98783634 58.6875 27.16796875 C58.55256064 28.69920741 58.41804658 30.23048361 58.28393555 31.76179504 C57.93305714 35.75527606 57.57647591 39.74822716 57.21862793 43.74108887 C56.8531848 47.83033836 56.49324327 51.92007184 56.1328125 56.00976562 C55.42720143 64.00698904 54.71555357 72.00366008 54 80 C52.59278049 80.47145443 51.18534899 80.94227612 49.77783203 81.4128418 C48.9940921 81.67510056 48.21035217 81.93735931 47.40286255 82.20756531 C39.99099525 84.65190853 32.49568355 86.8295241 25 89 C24.00871094 89.28907227 23.01742187 89.57814453 21.99609375 89.87597656 C18.96124206 90.75096733 15.91980945 91.59788574 12.875 92.4375 C11.94026855 92.70860596 11.00553711 92.97971191 10.04248047 93.2590332 C-1.41110606 96.34253398 -10.88090085 93.45801572 -22.0625 90.25 C-23.34911564 89.88669218 -24.63590098 89.5239848 -25.92285156 89.16186523 C-29.61792469 88.11708542 -33.30935617 87.06030403 -37 86 C-38.47605713 85.57968506 -38.47605713 85.57968506 -39.98193359 85.15087891 C-42.40623868 84.46019497 -44.8287678 83.76387058 -47.25 83.0625 C-48.28459351 82.76424316 -48.28459351 82.76424316 -49.34008789 82.45996094 C-53.87974719 81.12025281 -53.87974719 81.12025281 -55 80 C-55.30146572 77.74572525 -55.54052094 75.4830607 -55.75390625 73.21875 C-55.81907944 72.53123657 -55.88425262 71.84372314 -55.95140076 71.13537598 C-56.08885981 69.67281253 -56.22404993 68.21003437 -56.35717773 66.74707031 C-56.55916908 64.53645401 -56.77022153 62.32684428 -56.98242188 60.1171875 C-57.11513695 58.69275981 -57.24731432 57.26828189 -57.37890625 55.84375 C-57.4982251 54.55662109 -57.61754395 53.26949219 -57.74047852 51.94335938 C-58.02386655 47.63735421 -58 43.3153203 -58 39 C-49.42 39 -40.84 39 -32 39 C-30.81687888 46.09872674 -29.71790168 52.80649277 -30 60 C-28.845 60.2475 -27.69 60.495 -26.5 60.75 C-21.19759382 61.92362175 -15.9363513 63.25167401 -10.67382812 64.59082031 C-8.78469528 65.06909346 -6.89243025 65.53494533 -5 66 C-4.21625 66.25265625 -3.4325 66.5053125 -2.625 66.765625 C1.68809863 67.15072309 5.60849874 65.81783577 9.75 64.6875 C11.47365545 64.23192541 13.19761261 63.77749076 14.921875 63.32421875 C15.76041016 63.10169434 16.59894531 62.87916992 17.46289062 62.64990234 C21.28885767 61.66984805 25.1394092 60.83229336 29 60 C28.98259766 59.35313232 28.96519531 58.70626465 28.94726562 58.03979492 C28.837375 50.68039369 29.51029927 43.59728796 30.5 36.3125 C30.995 32.579375 31.49 28.84625 32 25 C21.44 25 10.88 25 0 25 C0 16.75 0 8.5 0 0 Z " fill="#FEFDFD" transform="translate(106,98)"/>
<path d="M0 0 C0.33 0 0.66 0 1 0 C1 78.87 1 157.74 1 239 C-33.65 239 -68.3 239 -104 239 C-100.91438963 237.45719482 -98.67787177 236.54763092 -95.421875 235.73828125 C-94.07053467 235.39615601 -94.07053467 235.39615601 -92.69189453 235.04711914 C-91.23565674 234.68348267 -91.23565674 234.68348267 -89.75 234.3125 C-81.49572674 232.20681805 -73.29497722 229.97466582 -65.125 227.5625 C-56.63670984 225.06167294 -48.14110083 222.59218761 -39.625 220.1875 C-38.60937988 219.8975415 -37.59375977 219.60758301 -36.54736328 219.30883789 C-30.40806522 217.58244652 -24.27360021 216.1477778 -18 215 C-18.02827881 214.24348145 -18.05655762 213.48696289 -18.08569336 212.70751953 C-18.33666337 199.71775312 -16.97243533 186.87482594 -15.75717545 173.95480728 C-15.42360959 170.39116993 -15.09808882 166.82679897 -14.7722168 163.26245117 C-14.63321064 161.74296417 -14.49418749 160.22347873 -14.35514832 158.70399475 C-14.28434744 157.93021044 -14.21354656 157.15642612 -14.1406002 156.3591938 C-13.91822529 153.93283377 -13.69491586 151.50656124 -13.47138977 149.08030701 C-12.18804687 135.13797871 -10.94138424 121.19249159 -9.703125 107.24609375 C-9.6046118 106.13698387 -9.50609859 105.02787399 -9.40460014 103.88515472 C-8.80541978 97.13873437 -8.20675474 90.39226836 -7.60822678 83.6457901 C-5.13403806 55.75792391 -2.65709019 27.87113842 0 0 Z " fill="#FEFCFC" transform="translate(210,0)"/>
<path d="M0 0 C0.33 0 0.66 0 1 0 C3.65442057 27.58927308 6.06756262 55.19766723 8.4375 82.8125 C10.65833446 108.68769608 12.92795861 134.55606473 15.3581543 160.41259766 C15.55129684 162.46777087 15.7444128 164.52294658 15.9375 166.578125 C16.02904861 167.55192108 16.12059723 168.52571716 16.21492004 169.52902222 C16.81385396 175.92875275 17.38577091 182.33040899 17.9375 188.734375 C18.00857971 189.55688248 18.07965942 190.37938995 18.15289307 191.2268219 C18.47407941 194.95214412 18.791059 198.67774388 19.10058594 202.40405273 C19.20661133 203.64614502 19.31263672 204.8882373 19.421875 206.16796875 C19.55480957 207.76547974 19.55480957 207.76547974 19.69042969 209.39526367 C19.92395335 212.10861952 19.92395335 212.10861952 21 215 C23.7662766 216.15922871 23.7662766 216.15922871 27.21875 217.015625 C27.85957016 217.19209564 28.50039032 217.36856628 29.16062927 217.55038452 C31.27075279 218.12865101 33.38517555 218.68919432 35.5 219.25 C36.96722328 219.64896116 38.43409968 220.04920009 39.90063477 220.45068359 C42.86597167 221.26102926 45.83286903 222.06520935 48.80126953 222.86425781 C54.52549353 224.40794528 60.23121182 226.01650677 65.9375 227.625 C67.92435074 228.18144833 69.91132985 228.73743853 71.8984375 229.29296875 C78.62011621 231.17332036 85.34131199 233.0553953 92.0625 234.9375 C94.1783838 235.52995368 96.29426906 236.12240217 98.41015625 236.71484375 C99.94010417 237.14322917 101.47005208 237.57161458 103 238 C103 238.33 103 238.66 103 239 C69.01 239 35.02 239 0 239 C0 160.13 0 81.26 0 0 Z " fill="#FEFDFC" transform="translate(0,0)"/>
<path d="M0 0 C8.58 0 17.16 0 26 0 C27.18312112 7.09872674 28.28209832 13.80649277 28 21 C29.155 21.2475 30.31 21.495 31.5 21.75 C36.09790038 22.77500964 40.67592593 23.87423474 45.25 25 C46.27770508 25.2489502 46.27770508 25.2489502 47.32617188 25.50292969 C51.067026 26.43175639 54.39594369 27.55837748 58 29 C58 37.58 58 46.16 58 55 C53.40479378 56.14880156 51.49848145 55.56581567 46.98828125 54.3046875 C46.30650314 54.11681671 45.62472504 53.92894592 44.92228699 53.73538208 C42.71623998 53.12479391 40.51441897 52.50029527 38.3125 51.875 C36.80878581 51.45504085 35.30487921 51.03577005 33.80078125 50.6171875 C30.16926776 49.6034869 26.54131002 48.57778719 22.9151001 47.54528809 C21.21127345 47.06015607 19.50680445 46.57728133 17.80224609 46.09472656 C15.36615505 45.40318541 12.93214404 44.70528048 10.5 44 C9.48933472 43.70778564 9.48933472 43.70778564 8.45825195 43.40966797 C4.12351907 42.12351907 4.12351907 42.12351907 3 41 C2.69853428 38.74572525 2.45947906 36.4830607 2.24609375 34.21875 C2.18092056 33.53123657 2.11574738 32.84372314 2.04859924 32.13537598 C1.91114019 30.67281253 1.77595007 29.21003437 1.64282227 27.74707031 C1.44083092 25.53645401 1.22977847 23.32684428 1.01757812 21.1171875 C0.88486305 19.69275981 0.75268568 18.26828189 0.62109375 16.84375 C0.5017749 15.55662109 0.38245605 14.26949219 0.25952148 12.94335938 C-0.02386655 8.63735421 0 4.3153203 0 0 Z " fill="#EBE9E9" transform="translate(48,137)"/>
<path d="M0 0 C21.45 0 42.9 0 65 0 C64 22 64 22 63 26 C41.88 26 20.76 26 -1 26 C-0.67 17.42 -0.34 8.84 0 0 Z " fill="#FEFEFE" transform="translate(106,44)"/>
<path d="M0 0 C10.23 0 20.46 0 31 0 C32.125 12.375 32.125 12.375 31.66015625 16.88671875 C31.56669922 17.84384766 31.47324219 18.80097656 31.37695312 19.78710938 C31.27318359 20.74423828 31.16941406 21.70136719 31.0625 22.6875 C30.96259766 23.68716797 30.86269531 24.68683594 30.75976562 25.71679688 C30.51571996 28.14563227 30.26237747 30.5730887 30 33 C26.02738182 34.15077383 22.05136595 35.28885312 18.07128906 36.41357422 C16.68458216 36.8061803 15.29851622 37.201057 13.91308594 37.59814453 C11.88188802 38.17828216 9.84772474 38.74667297 7.8125 39.3125 C6.58144531 39.65925781 5.35039063 40.00601563 4.08203125 40.36328125 C1 41 1 41 -2 40 C-1.34 40 -0.68 40 0 40 C0 26.8 0 13.6 0 0 Z " fill="#F06428" transform="translate(105,125)"/>
<path d="M0 0 C12.21 0 24.42 0 37 0 C36.67 8.58 36.34 17.16 36 26 C24.78 26 13.56 26 2 26 C1.505 22.0709375 1.505 22.0709375 1 18.0625 C0.89558594 17.2569165 0.79117188 16.45133301 0.68359375 15.62133789 C0.56177734 14.61961548 0.56177734 14.61961548 0.4375 13.59765625 C0.31181641 12.60004272 0.31181641 12.60004272 0.18359375 11.58227539 C-0.09024042 7.73075414 0 3.86124347 0 0 Z " fill="#E34C24" transform="translate(69,71)"/>
</svg>
